<svg width="363" height="346" viewBox="0 0 363 346" fill="none" xmlns="http://www.w3.org/2000/svg">
<g clip-path="url(#clip0_438_13030)">
<path d="M12.3419 213.977C12.2858 213.911 12.2459 213.833 12.2256 213.749C4.66689 182.562 5.93772 149.89 15.8962 119.383C25.8546 88.8766 44.1084 61.7365 68.6182 40.9951C93.128 20.2537 122.928 6.72815 154.69 1.92949C186.452 -2.86918 218.923 1.24808 248.477 13.8213C248.544 13.8496 248.605 13.8908 248.655 13.9425C248.706 13.9942 248.746 14.0554 248.774 14.1226C248.801 14.1898 248.814 14.2617 248.814 14.3342C248.813 14.4066 248.798 14.4782 248.77 14.5449C248.741 14.6116 248.7 14.672 248.648 14.7228C248.596 14.7735 248.535 14.8136 248.468 14.8407C248.401 14.8678 248.329 14.8814 248.256 14.8808C248.184 14.8801 248.112 14.8651 248.045 14.8368C187.58 -10.8459 118.969 -0.379108 68.9858 42.1527C19.3081 84.4249 -2.02943 150.077 13.2999 213.49C13.3291 213.61 13.3167 213.737 13.2648 213.85C13.2128 213.963 13.1243 214.055 13.0135 214.111C12.9027 214.167 12.7762 214.185 12.6543 214.16C12.5325 214.136 12.4224 214.071 12.3419 213.977Z" fill="#FBDBD0"/>
<path d="M113.326 332.395C113.245 332.3 113.199 332.181 113.194 332.057C113.189 331.933 113.226 331.811 113.3 331.711C113.373 331.611 113.478 331.538 113.598 331.505C113.718 331.471 113.845 331.479 113.96 331.528C174.197 356.727 242.479 346.121 292.157 303.848C342.61 260.917 364.036 194.922 348.072 131.62C348.055 131.55 348.051 131.477 348.062 131.405C348.072 131.333 348.097 131.264 348.134 131.202C348.171 131.14 348.221 131.086 348.279 131.042C348.337 130.999 348.403 130.968 348.474 130.95C348.544 130.933 348.617 130.929 348.689 130.939C348.761 130.95 348.83 130.975 348.892 131.012C348.954 131.049 349.008 131.098 349.052 131.156C349.095 131.215 349.126 131.281 349.144 131.351C356.891 162.111 355.908 194.419 346.307 224.654C336.367 255.811 317.85 283.547 292.874 304.689C268.487 325.451 238.811 339.047 207.149 343.965C175.487 348.883 143.079 344.93 113.532 332.545C113.453 332.512 113.382 332.461 113.326 332.395Z" fill="#FBDBD0"/>
<path d="M100.56 342.189C100.513 342.134 100.477 342.07 100.455 342.001C100.432 341.932 100.424 341.859 100.429 341.787C100.435 341.715 100.455 341.644 100.488 341.58C100.521 341.515 100.567 341.458 100.622 341.411L361.589 119.347C361.701 119.252 361.845 119.205 361.991 119.217C362.138 119.228 362.273 119.297 362.368 119.409C362.463 119.52 362.51 119.665 362.498 119.811C362.486 119.957 362.417 120.092 362.306 120.187L101.339 342.251C101.283 342.298 101.219 342.334 101.15 342.356C101.081 342.378 101.009 342.387 100.936 342.381C100.864 342.375 100.793 342.355 100.729 342.322C100.664 342.289 100.607 342.244 100.56 342.189Z" fill="#FBDBD0"/>
<path d="M0.63195 225.012C0.58489 224.957 0.549177 224.893 0.526838 224.824C0.504499 224.755 0.495973 224.682 0.501758 224.61C0.507543 224.538 0.527522 224.467 0.56055 224.403C0.593578 224.338 0.639011 224.281 0.69425 224.234L261.661 2.16948C261.773 2.07475 261.918 2.02813 262.064 2.03987C262.21 2.0516 262.345 2.12073 262.44 2.23207C262.535 2.3434 262.582 2.48783 262.57 2.63363C262.558 2.77942 262.489 2.91465 262.378 3.0096L1.4107 225.074C1.35549 225.121 1.29154 225.157 1.22252 225.179C1.15349 225.201 1.08074 225.21 1.00842 225.204C0.936102 225.198 0.865637 225.178 0.801041 225.145C0.736445 225.112 0.678982 225.067 0.63195 225.012Z" fill="#FBDBD0"/>
<path d="M100.56 342.189C100.513 342.134 100.477 342.07 100.455 342.001C100.432 341.932 100.424 341.859 100.429 341.787C100.435 341.715 100.455 341.644 100.488 341.58C100.521 341.515 100.567 341.458 100.622 341.411L361.589 119.347C361.701 119.252 361.845 119.205 361.991 119.217C362.138 119.228 362.273 119.297 362.368 119.409C362.463 119.52 362.51 119.665 362.498 119.811C362.486 119.957 362.417 120.092 362.306 120.187L101.339 342.251C101.283 342.298 101.219 342.334 101.15 342.356C101.081 342.378 101.009 342.387 100.936 342.381C100.864 342.375 100.793 342.355 100.729 342.322C100.664 342.289 100.607 342.244 100.56 342.189Z" fill="#FBDBD0"/>
<path d="M305.61 91.5267H204.608V90.9984C204.608 90.5871 204.444 90.1925 204.153 89.9016C203.862 89.6107 203.467 89.4473 203.055 89.4473H160.362C159.95 89.4473 159.556 89.6107 159.264 89.9016C158.973 90.1925 158.809 90.5871 158.809 90.9984V91.5267H57.3907C55.5787 91.5267 53.8409 92.2458 52.5597 93.5256C51.2784 94.8055 50.5586 96.5413 50.5586 98.3513V236.503C50.5586 238.313 51.2784 240.049 52.5597 241.329C53.8409 242.609 55.5787 243.328 57.3907 243.328H305.61C307.422 243.328 309.16 242.609 310.441 241.329C311.723 240.049 312.442 238.313 312.442 236.503V98.3513C312.442 96.5413 311.723 94.8055 310.441 93.5256C309.16 92.2458 307.422 91.5267 305.61 91.5267Z" fill="#1C374A"/>
<path d="M62.8228 106.052C62.6533 106.052 62.4908 106.119 62.371 106.239C62.2512 106.359 62.1838 106.521 62.1836 106.691V237.731C62.1838 237.9 62.2512 238.063 62.371 238.182C62.4909 238.302 62.6534 238.369 62.8228 238.37H300.176C300.345 238.369 300.508 238.302 300.628 238.182C300.747 238.063 300.815 237.9 300.815 237.731V106.691C300.815 106.521 300.747 106.359 300.628 106.239C300.508 106.119 300.345 106.052 300.176 106.052H62.8228Z" fill="#E94F1B"/>
<path d="M181.291 99.8452C182.671 99.8452 183.789 98.728 183.789 97.3499C183.789 95.9717 182.671 94.8545 181.291 94.8545C179.911 94.8545 178.793 95.9717 178.793 97.3499C178.793 98.728 179.911 99.8452 181.291 99.8452Z" fill="#E94F1B"/>
<path d="M316.991 234.017H293.22V231.565C293.22 231.43 293.068 231.321 292.881 231.321H284.731C284.543 231.321 284.391 231.43 284.391 231.565V234.017H279.298V231.565C279.298 231.43 279.146 231.321 278.958 231.321H270.808C270.621 231.321 270.469 231.43 270.469 231.565V234.017H265.375V231.565C265.375 231.43 265.223 231.321 265.036 231.321H256.886C256.698 231.321 256.546 231.43 256.546 231.565V234.017H251.453V231.565C251.453 231.43 251.301 231.321 251.113 231.321H242.963C242.776 231.321 242.624 231.43 242.624 231.565V234.017H237.53V231.565C237.53 231.43 237.378 231.321 237.19 231.321H229.04C228.853 231.321 228.701 231.43 228.701 231.565V234.017H223.607V231.565C223.607 231.43 223.455 231.321 223.268 231.321H215.118C214.93 231.321 214.778 231.43 214.778 231.565V234.017H209.685V231.565C209.685 231.43 209.533 231.321 209.345 231.321H145.505C145.317 231.321 145.165 231.43 145.165 231.565V234.017H140.072V231.565C140.072 231.43 139.92 231.321 139.732 231.321H131.582C131.395 231.321 131.243 231.43 131.243 231.565V234.017H126.149V231.565C126.149 231.43 125.997 231.321 125.809 231.321H117.66C117.472 231.321 117.32 231.43 117.32 231.565V234.017H112.226V231.565C112.226 231.43 112.074 231.321 111.887 231.321H103.737C103.55 231.321 103.397 231.43 103.397 231.565V234.017H98.3039V231.565C98.3039 231.43 98.1518 231.321 97.9643 231.321H89.8145C89.6269 231.321 89.4749 231.43 89.4749 231.565V234.017H84.3813V231.565C84.3813 231.43 84.2292 231.321 84.0417 231.321H75.8919C75.7043 231.321 75.5523 231.43 75.5523 231.565V234.017H70.4586V231.565C70.4586 231.43 70.3066 231.321 70.1191 231.321H61.9693C61.7817 231.321 61.6297 231.43 61.6297 231.565V234.017H46.0092C41.5082 234.017 37.8594 236.637 37.8594 239.869V242.516C37.8594 245.748 41.5082 248.368 46.0092 248.368H316.991C321.492 248.368 325.14 245.748 325.14 242.516V239.869C325.14 236.637 321.492 234.017 316.991 234.017Z" fill="#1C374A"/>
<path d="M153.865 161.183H83.7087C83.5622 161.183 83.4216 161.125 83.318 161.021C83.2145 160.918 83.1562 160.777 83.1562 160.631C83.1562 160.485 83.2145 160.344 83.318 160.241C83.4216 160.137 83.5622 160.079 83.7087 160.079H153.865C154.011 160.079 154.152 160.137 154.255 160.241C154.359 160.344 154.417 160.485 154.417 160.631C154.417 160.777 154.359 160.918 154.255 161.021C154.152 161.125 154.011 161.183 153.865 161.183Z" fill="white"/>
<path d="M153.865 173.322H83.7087C83.5622 173.322 83.4216 173.264 83.318 173.161C83.2145 173.057 83.1562 172.917 83.1562 172.771C83.1562 172.624 83.2145 172.484 83.318 172.38C83.4216 172.277 83.5622 172.219 83.7087 172.219H153.865C154.011 172.219 154.152 172.277 154.255 172.38C154.359 172.484 154.417 172.624 154.417 172.771C154.417 172.917 154.359 173.057 154.255 173.161C154.152 173.264 154.011 173.322 153.865 173.322Z" fill="white"/>
<path d="M153.865 185.462H83.7084C83.6357 185.462 83.5637 185.448 83.4965 185.42C83.4292 185.393 83.3682 185.352 83.3167 185.301C83.2652 185.25 83.2244 185.189 83.1965 185.122C83.1686 185.055 83.1543 184.983 83.1543 184.91C83.1543 184.838 83.1686 184.766 83.1965 184.699C83.2244 184.632 83.2652 184.571 83.3167 184.519C83.3682 184.468 83.4292 184.428 83.4965 184.4C83.5637 184.372 83.6357 184.358 83.7084 184.358H153.865C153.937 184.358 154.009 184.372 154.076 184.4C154.144 184.428 154.205 184.468 154.256 184.519C154.308 184.571 154.349 184.632 154.376 184.699C154.404 184.766 154.419 184.838 154.419 184.91C154.419 184.983 154.404 185.055 154.376 185.122C154.349 185.189 154.308 185.25 154.256 185.301C154.205 185.352 154.144 185.393 154.076 185.42C154.009 185.448 153.937 185.462 153.865 185.462Z" fill="white"/>
<path d="M272.909 129.454H186.181C185.265 129.454 184.523 130.195 184.523 131.11V214.432C184.523 215.347 185.265 216.088 186.181 216.088H272.909C273.824 216.088 274.566 215.347 274.566 214.432V131.11C274.566 130.195 273.824 129.454 272.909 129.454Z" fill="white"/>
<path d="M202.554 175.303C202.852 170.056 205.005 165.085 208.63 161.276C212.255 157.467 217.116 155.067 222.348 154.506C227.579 153.944 232.84 155.257 237.192 158.21C241.545 161.162 244.706 165.563 246.112 170.628C246.381 170.618 246.65 170.607 246.921 170.607C247.847 170.616 248.765 170.772 249.642 171.069C260.685 174.692 257.777 191.161 246.154 191.161H217.588C215.568 191.167 213.567 190.765 211.706 189.98C209.845 189.195 208.161 188.044 206.756 186.593C205.351 185.143 204.253 183.425 203.529 181.541C202.804 179.657 202.467 177.647 202.539 175.63C202.543 175.521 202.548 175.412 202.554 175.303Z" fill="#E94F1B"/>
<path d="M228.592 174.958V165.881H223.699V174.958H219.793L222.969 180.454L226.146 185.949L229.322 180.454L232.498 174.958H228.592Z" fill="white"/>
</g>
<defs>
<clipPath id="clip0_438_13030">
<rect width="362" height="346" fill="white" transform="translate(0.5)"/>
</clipPath>
</defs>
</svg>
